<?xml version="1.0" encoding="UTF-8"?>
<!DOCTYPE svg PUBLIC "-//W3C//DTD SVG 1.1//EN" "http://www.w3.org/Graphics/SVG/1.1/DTD/svg11.dtd">
<!-- Creator: CorelDRAW -->
<svg xmlns="http://www.w3.org/2000/svg" xml:space="preserve" width="1646px" height="2022px" style="shape-rendering:geometricPrecision; text-rendering:geometricPrecision; image-rendering:optimizeQuality; fill-rule:evenodd; clip-rule:evenodd"
viewBox="0 0 1761.31 2164.02"
 xmlns:xlink="http://www.w3.org/1999/xlink">
 <defs>
  <style type="text/css">
   <![CDATA[
    .fil2 {fill:#080807}
    .fil1 {fill:#FDFDFD}
    .fil0 {fill:#521973}
   ]]>
  </style>
 </defs>
 <g id="Capa_x0020_1">
  <metadata id="CorelCorpID_0Corel-Layer"/>
  <path class="fil0" d="M891.733 349.124c0,6.80026 168.449,284.094 187.409,316.783 31.1012,53.6183 64.5513,103.54 94.1177,157.977 3.75601,6.91531 9.5272,13.0443 12.1138,18.3591 7.07586,14.5424 -4.4703,17.579 10.7371,22.5083 14.5512,4.71556 34.4122,13.378 47.4691,16.2352 25.3818,5.55374 79.4944,29.177 96.789,30.617l0 -825.708 -448.635 0 0 263.228z"/>
  <path class="fil0" d="M85.8497 2075.35l445.867 0 0 -260.458c0,-11.7977 -129.813,-226.755 -146.044,-250.108 -14.9128,-21.4552 -144.593,-240.495 -147.687,-250.04l-124.441 -15.2276c0,-21.751 13.8458,-41.2959 13.8458,-58.1885 0,-5.14539 -26.0076,-40.4476 -30.0708,-46.5159l140.846 -92.0254 0.577751 -371.634 154.658 264.021 69.0823 -22.6157c-0.720608,-8.66752 -2.76865,-9.84325 -2.76865,-19.3957l0.431101 -6.74969 378.068 -105.183 -442.194 -755.337 -310.169 0 0 1989.46z"/>
  <path class="fil1" d="M891.733 85.8965l448.635 0 0 825.708c-17.2946,-1.43995 -71.4072,-25.0632 -96.789,-30.617 -13.0569,-2.85715 -32.9179,-11.5196 -47.4691,-16.2352 -15.2074,-4.92921 -3.66119,-7.96588 -10.7371,-22.5083 -2.5866,-5.3148 -8.35779,-11.4438 -12.1138,-18.3591 -29.5664,-54.4375 -63.0165,-104.359 -94.1177,-157.977 -18.9596,-32.6891 -187.409,-309.983 -187.409,-316.783l0 -263.228zm-36.0026 274.313c0,16.1492 296.322,487.886 296.322,501.52l0 19.3957c19.6018,1.63211 98.8813,26.3426 118.278,34.0544 18.6195,7.4033 37.0064,11.6422 54.3579,20.4261 6.73073,3.40582 50.3288,25.512 51.6815,25.8736l0 -911.604 -520.639 0 0 310.334z"/>
  <path class="fil1" d="M825.268 365.75l0 -346.355 581.566 0 0 972.563c24.4147,5.69154 56.2441,44.3212 69.2327,63.7283 34.7523,0 111.795,29.5057 142.859,39.9406 28.8054,9.67637 97.8282,52.6031 111.923,73.6638 -8.26171,-2.20607 -79.5298,-45.0924 -97.8535,-54.4893 -27.8433,-14.2807 -80.4274,-31.4059 -120.926,-31.4059l-19.3856 0c11.9684,51.3983 75.5614,34.8016 111.554,62.9483 20.8812,16.33 90.1885,56.033 96.1481,78.3642 -36.813,-24.6638 -133.243,-91.4376 -188.316,-91.4376 -3.88117,0 -5.53983,3.7775 -5.53983,8.31228l0 13.8546c0,8.0569 32.5386,19.3932 42.3212,26.928 16.7371,12.8913 23.823,18.555 38.6802,33.3414 14.9077,14.8344 52.5096,65.2947 57.4679,86.5842 -3.01897,-2.21239 -43.4413,-53.0393 -54.6916,-64.4261 -12.2857,-12.4349 -54.1075,-43.636 -75.4691,-43.636 -19.2592,0 -12.7472,42.6764 -25.5689,57.5412 -26.0405,30.1947 -10.6448,29.9849 -23.3578,62.526 -12.5297,32.0671 -56.3086,76.4123 -56.3086,115.453l0 16.6258c0,30.9052 41.5412,82.1367 41.5412,124.687l0 22.1682c0,12.1037 -5.53983,10.062 -5.53983,22.1656 0,16.9457 36.0026,40.7978 36.0026,85.8965 0,35.9141 -26.1024,74.8661 -33.0569,105.468 -8.37422,36.8521 -11.2529,82.4021 -11.7674,128.07l-29.9482 -17.4134 0 227.209 -409.865 0c-13.6157,0 -62.5349,-111.656 -80.325,-124.706l-31.8736 23.9748 -3.51707 -1.4134 -17.2617 -99.6386 2.81796 -0.487991 -0.777498 -39.8686 -265.081 189.493 0 52.6461 -584.335 0 0 -2125.23 416.723 0.857144 486.088 827.622c18.8559,-1.57017 42.8066,-13.8546 60.9268,-13.8546l5.5373 0c35.2314,0 92.028,29.6296 130.161,30.4792 -4.30721,-18.4956 -125.8,-214.962 -145.672,-247.71 -16.8951,-27.8433 -145.111,-238.803 -145.111,-251.04zm-19.3856 8.31228c0,10.7472 247.277,411.883 274.167,462.729 -30.976,-2.57902 -66.545,-22.1669 -99.6967,-22.1669 -11.1239,0 -38.5234,8.44376 -49.8484,11.0835 -19.4551,-29.067 -45.0696,-72.3945 -61.8332,-104.383 -18.7206,-35.7232 -43.2352,-68.7561 -61.8813,-104.336 -34.732,-66.277 -82.3958,-143.712 -122.208,-207.457 -42.2592,-67.6651 -81.9445,-139.068 -122.32,-207.344 -14.7687,-24.9748 -110.503,-202.187 -127.474,-202.187l-415.403 0c-12.928,0 -19.3856,6.46145 -19.3856,19.3957l0 2136.31c12.7244,3.3995 6.99116,8.31228 16.6157,8.31228l11.0771 0 576.027 0 -5.53857 0c28.7712,0 22.1543,-32.3743 22.1543,-60.9584l225.61 -162.759c1.47788,35.8167 11.4223,123.967 37.4792,123.967l2.76992 0c7.4033,0 19.177,-12.7737 24.9229,-16.6258 20.2415,14.8382 57.9078,116.376 80.3124,116.376l415.404 0c29.6208,0 19.3856,-67.2112 19.3856,-96.9799 0,-38.7902 0,-77.5829 0,-116.374 44.2529,21.2453 27.6233,-87.9534 36.5816,-124.108 6.5904,-26.5993 41.3452,-104.242 38.191,-128.038l-3.47156 -27.6157 -4.83692 -0.0922884c0,-23.9141 -17.727,-40.526 -27.6941,-55.4173l6.4349 -35.8863c4.91025,-39.0001 -42.4362,-107.067 -42.4362,-133.134l0 -13.8546c0,-34.2845 35.9975,-75.4691 50.3692,-102 10.2832,-18.9861 7.55248,-47.0544 18.1201,-59.4539 11.8281,-13.8787 20.1302,-30.11 20.1302,-54.6714l8.30848 0c17.0101,0 59.5842,44.3755 71.2884,56.1316 12.7396,12.794 46.8686,71.3275 56.1012,71.3275l2.76992 0c12.928,0 19.3856,-6.46019 19.3856,-19.3957l0 -2.77118c0,-10.4792 -38.5323,-73.038 -45.9723,-84.2327 -9.90393,-14.9052 -61.4881,-66.6562 -62.033,-68.1632 35.7396,8.33124 125.057,77.5842 138.468,77.5842l2.76865 0c6.66878,0 16.617,-9.95324 16.617,-16.6258 0,-35.2276 -104.245,-87.2593 -116.314,-105.291 29.1454,6.79268 122.785,72.0418 132.929,72.0418 9.3856,0 19.3856,-10.0051 19.3856,-19.3957 0,-33.4135 -124.166,-94.0722 -157.842,-108.075 -25.9735,-10.799 -74.3288,-22.9482 -103.053,-29.8913 -30.2213,-7.30469 -46.0785,-43.8774 -74.1961,-58.7637 0,-167.173 0,-334.347 0,-501.522 0,-84.0482 0,-168.096 0,-252.145 0,-41.5626 0,-83.1265 0,-124.688 0,-33.3818 12.0771,-102.521 -22.1555,-102.521l-581.565 0c-8.97347,0 -16.617,12.0405 -16.617,22.1669l0 351.896z"/>
  <polygon class="fil1" points="307.399,1097.25 357.77,1066.46 307.399,986.416 "/>
  <path class="fil1" d="M1359.75 1055.69l0 80.3541c0,24.4286 32.2567,40.9065 49.2656,50.459 11.1239,6.24527 23.1353,9.51961 34.3351,15.5221 16.1505,8.65614 17.9646,14.6612 29.9432,22.6865 3.36789,-7.02403 8.30848,-20.2137 8.30848,-30.4792l0 -2.77118c0,-12.756 -7.95071,-5.5411 -16.617,-5.5411l-2.76865 0c-8.51329,0 -11.0771,-8.11759 -11.0771,-16.6258l0 -8.31228c0,-5.98357 11.1226,-16.6246 13.8458,-16.6246 11.6928,0 2.09735,6.87232 19.3856,8.31228l0 -13.8546c0,-6.2124 -2.19217,-6.08218 -5.4349,-10.5917l-30.5664 5.05058c-3.13907,-11.7623 -5.53857,-4.8483 -5.53857,-13.8546l0 -2.76992c0,-7.71809 11.6713,-19.3957 19.3856,-19.3957l11.0771 0c-2.0708,-24.8989 -33.2327,-12.5879 -33.2327,-38.7927l0 -11.0835c-29.7067,0 -32.8028,-22.1656 -60.9255,-22.1656l-8.30848 0c-2.85209,12.2516 -11.0771,18.7737 -11.0771,30.4779z"/>
  <path class="fil1" d="M1016.35 1083.4c28.2402,-2.35146 146.305,-52.6461 160.622,-52.6461 6.34388,0 3.21998,0.939319 11.0771,2.77118 0.721872,8.66626 2.76992,9.84325 2.76992,19.3957l0 5.5411c0,12.5955 -58.5728,16.8205 -74.2214,19.9482 -12.7143,2.53983 -56.8079,19.885 -70.6727,26.2681 -71.0608,32.7093 -90.502,4.75096 -90.502,103.409 35.5045,-18.7952 70.569,-41.1505 105.237,-58.1872 16.0582,-7.89129 38.4514,-19.0683 54.8054,-28.2896 12.4994,-7.04805 15.8066,-4.71935 26.2402,-15.3072 4.84704,-4.91783 16.646,-17.3616 24.1897,-17.3616l2.76865 0c7.85968,0 13.8471,9.56512 13.8471,16.6258 0,21.7687 -33.7738,27.7421 -51.038,37.6006 -18.5626,10.6031 -39.483,20.2175 -58.8016,29.8332 -14.9393,7.43617 -111.708,59.7852 -111.708,68.3364 0,15.7143 23.2605,45.9659 33.2314,52.6461 20.2238,-13.5487 164.444,-146.855 166.162,-146.855 6.70039,0 19.3856,12.6915 19.3856,19.397l0 5.5411c0,13.2996 -11.5955,4.91404 -23.952,12.0569 -7.19597,4.16056 -16.7902,11.1012 -23.1846,15.5942 -10.354,7.27688 -31.6233,24.7093 -40.8155,33.9748 -19.9747,20.1302 -58.2883,55.4249 -72.6714,76.9154 7.54489,11.2731 23.3528,13.8546 41.5412,13.8546 52.6613,0 103.694,-55.9065 129.446,-86.6095 26.8521,-32.0114 22.0746,-27.8863 63.6031,-44.4261 36.2769,-14.4463 45.0077,-19.0304 75.947,-35.153l7.93933 -58.2491 0 -27.708c0,-21.1454 -7.9368,-24.8951 -8.30848,-41.5626 -9.67132,-2.25411 -9.32492,-5.5411 -19.3856,-5.5411l-8.30848 0c-13.9583,0 -30.9634,36.0203 -47.0785,36.0203l-8.30848 0c-8.59799,0 -24.9242,-16.335 -24.9242,-24.9368l0 -2.77118c0,-26.8445 100.317,-43.6069 132.929,-44.3338l0 -5.5411c-30.3073,-7.06449 -39.55,-24.9381 -88.6196,-24.9381l-22.1555 0c-70.2732,0 -198.324,85.4097 -227.086,124.688z"/>
  <path class="fil1" d="M1229.59 1238.56l0 5.5411c0,35.3945 41.636,91.0861 64.0266,96.9294l-3.10114 -24.8875 -0.0353983 -2.77497 8.34388 -85.8914c-6.23515,-9.31607 -12.1403,-13.8546 -27.6941,-13.8546l-13.8471 0c-13.9975,0 -27.6928,9.99622 -27.6928,24.9381z"/>
  <path class="fil1" d="M1401.29 1230.25l0 19.3957c0,25.0847 13.8471,39.2491 13.8471,60.9584l0 8.31354c0,7.48294 -1.32238,7.63844 -2.76865,13.8534 21.5158,-14.4147 41.5399,-44.1429 41.5399,-80.3541l0 -8.31228c0,-17.311 -16.2124,-30.4792 -33.2327,-30.4792 -7.83566,0 -19.3856,8.79521 -19.3856,16.6246z"/>
  <path class="fil1" d="M1379.14 1604.31c10.5689,2.82428 14.3325,8.31354 30.4628,8.31354 7.47915,0 7.63592,-1.32364 13.2756,-2.82175l3.34135 -44.2833c1.2617,-14.2756 -5.37295,-47.1037 -16.617,-47.1037l-2.76865 0c-14.5689,0 -9.6789,25.5588 -14.866,40.5424 -5.09735,14.7206 -9.37422,30.5171 -12.8281,45.3528z"/>
  <path class="fil1" d="M1229.59 1565.52l0 16.6246c0,11.1429 7.14793,31.3616 11.1239,38.3566l35.9558 3.20607 2.76865 0c10.2579,0 12.5095,-2.70291 16.6157,-8.31228 -22.0721,-32.9786 -25.8066,-50.4261 -36.0013,-94.2075 -19.3793,0.431101 -30.4628,24.995 -30.4628,44.3326z"/>
  <path class="fil1" d="M537.255 991.959l2.4665 26.4501 -78.2226 18.239 6.00127 18.0948 -293.061 161.599 3.02023 -0.314792 2.54868 39.1606c39.9179,0 96.7043,10.8622 132.835,11.1783 42.373,0.370418 24.0455,3.56638 60.4565,-6.20229 19.8053,-5.31354 33.9343,-13.2883 61.4893,-13.2883 -24.44,36.5171 -83.0798,63.5677 -83.0798,121.915 0,6.62201 152.813,261.459 170.055,289.813 17.4008,28.6195 79.4375,118.058 79.2176,150.72 -0.523389,77.5273 -0.0303414,155.234 -0.0303414,232.78 38.8041,-25.9988 293.713,-212.864 315.707,-213.354 0,20.7396 -13.8471,63.3136 -13.8471,77.5829l0 33.2504c0,13.1467 3.10114,20.0139 5.53857,30.4792 43.5108,-29.1518 196.803,-166.249 249.242,-166.249 7.48042,0 7.63592,1.32238 13.8471,2.76992 -0.461442,20.7067 -13.8471,40.6625 -13.8471,69.2719l0 24.9368c28.9571,-6.74969 68.4641,-77.5829 135.699,-77.5829l72.0026 0c14.6637,0 36.0329,32.0342 44.3098,41.5614 0,-41.8332 0.692795,-54.3098 13.8382,-83.1329 8.29963,-18.1972 22.1631,-52.1303 22.1631,-77.5753 0,-28.7775 -15.3932,-60.9584 -44.3098,-60.9584l-30.5702 -1.0885 -68.5741 8.07713 -62.9647 24.0784 -1.28192 -3.35778c0,-34.6258 14.3161,-21.0911 -23.8268,-31.5791 -24.5664,-6.75475 -28.0266,-5.67384 -48.636,-15.067 -30.0089,-13.6776 -54.5361,-26.172 -76.3971,-48.2491 -34.3085,-34.6448 -78.2277,-105.244 -78.2277,-171.105 0,-14.9924 8.30722,-28.9457 8.30722,-47.1037l0 -5.54236c0,-9.39824 -16.019,-13.8534 -24.9242,-13.8534 -6.67005,0 -100.907,111.381 -112.823,125.409 -16.2036,19.0771 -97.9357,129.675 -105.956,135.05 3.72061,-15.9773 76.789,-123.436 90.8282,-144.645 15.4855,-23.3983 32.5727,-47.0936 49.6486,-69.4717 16.2263,-21.2668 40.1606,-45.9887 52.6069,-65.1543l-40.7637 -53.9078 2.76486 -2.09229c-31.5045,0.702909 -113.152,81.3667 -138.468,99.7498 -17.2769,12.5449 -43.4577,42.086 -60.2378,58.8762 -14.2352,14.244 -46.3591,51.904 -58.8446,60.2694 13.2756,-49.7447 198.352,-214.363 245.228,-246.669l6.78256 -80.2884c-17.5816,1.46397 -80.4085,32.0367 -94.7195,41.0001 -30.6372,19.1897 -52.191,33.6486 -80.9003,54.8269 -24.6802,18.2061 -51.7472,40.9786 -74.3566,61.3756 -19.1694,17.2933 -52.4501,51.856 -71.2681,64.4641 6.67384,-25.0089 84.5766,-98.0735 105.865,-118.516 28.3882,-27.2617 98.234,-73.4413 135.106,-92.0292 24.4261,-12.3135 49.215,-27.4349 74.7169,-38.8484 28.3692,-12.6966 36.751,-32.5866 58.8623,-54.7093 21.4235,-21.4349 36.3515,-33.995 61.344,-52.2289 13.2276,-9.65109 62.6385,-37.9419 68.1278,-45.44 -42.1303,0 -68.9609,-5.06448 -96.894,11.1176 -15.1416,8.77119 -51.301,41.5285 -69.2669,41.5285l-5.53857 0c-15.8913,0 -21.9811,-14.6283 -33.5614,-23.378l-149.216 40.0039c-3.13907,-11.7623 -5.53857,-4.8483 -5.53857,-13.8546l0 -8.31228c15.579,-4.16183 71.765,-31.5765 89.5728,-40.6082 26.8534,-13.617 61.4868,-31.7813 88.0393,-42.1429 50.9204,-19.8698 182.525,-8.68649 251.638,-8.68649 -2.00632,-2.74084 -173.414,-55.416 -185.546,-55.416 -21.1909,0 -201.155,47.9116 -228.112,57.1619 -32.4324,11.1277 -77.3124,21.4033 -111.386,29.8673 -39.8901,9.90773 -76.0203,20.3338 -114.678,29.3452z"/>
  <path class="fil1" d="M983.122 1995l110.774 -88.6676c0,50.1859 7.58914,87.2353 36.0013,108.062 52.3756,-35.0898 100.479,-138.54 191.086,-138.54 9.54742,0 10.7232,2.04804 19.3856,2.76992l0 196.73 -304.629 0c-9.05438,0 -46.7611,-69.2782 -52.6183,-80.3541zm149.545 -22.1669l-13.8458 -113.604c-14.3287,7.58535 -174.469,137.478 -174.469,138.541 0,7.30216 63.1126,113.604 69.2327,113.604l362.786 0 0 -229.979c0,-12.708 -36.4678,-30.4792 -52.617,-30.4792l-11.0771 0c-87.5311,0 -162.138,117.142 -180.009,121.917z"/>
  <path class="fil0" d="M983.122 1995c5.85715,11.0759 43.5639,80.3541 52.6183,80.3541l304.629 0 0 -196.73c-8.66247,-0.721872 -9.83819,-2.76992 -19.3856,-2.76992 -90.607,0 -138.711,103.45 -191.086,138.54 -28.4122,-20.8268 -36.0013,-57.8762 -36.0013,-108.062l-110.774 88.6676z"/>
  <path class="fil1" d="M85.8497 85.8965l310.169 0 442.194 755.337 -378.068 105.183 -0.431101 6.74969c0,9.55248 2.04804,10.7282 2.76865,19.3957l-69.0823 22.6157 -154.658 -264.021 -0.577751 371.634 -140.846 92.0254c4.06322,6.06828 30.0708,41.3705 30.0708,46.5159 0,16.8926 -13.8458,36.4375 -13.8458,58.1885l124.441 15.2276c3.09356,9.54489 132.774,228.584 147.687,250.04 16.2314,23.3528 146.044,238.31 146.044,250.108l0 260.458 -445.867 0 0 -1989.46zm-36.0013 2025.48l517.871 0 0 -307.562c0,-13.2048 -129.292,-225.4 -146.223,-252.701 -19.8395,-31.9937 -142.894,-232.541 -147.426,-250.997l-124.525 -19.9912c0.304678,-13.7004 10.7446,-34.6435 7.46651,-46.0494 -3.1947,-11.1138 -19.9482,-20.6726 -20.885,-36.3313l138.039 -78.3276 1.46524 -253.011 112.052 186.468 36.0291 -22.1239c-6.31607,-27.1201 -10.8508,-17.6865 19.9191,-27.1745 15.1315,-4.66625 32.3022,-6.70165 44.2858,-14.4577l-3.12516 -27.0443 404.171 -105.886c-72.6765,-137.422 -162.177,-268.33 -237.22,-405.486 -37.7207,-68.9432 -81.0431,-132.747 -119.082,-202.271 -11.9912,-21.9179 -112.861,-198.555 -122.795,-198.555l-360.017 0 0 2061.5z"/>
  <path class="fil2" d="M1132.67 1972.83c17.8711,-4.77498 92.478,-121.917 180.009,-121.917l11.0771 0c16.1492,0 52.617,17.7712 52.617,30.4792l0 229.979 -362.786 0c-6.12011,0 -69.2327,-106.302 -69.2327,-113.604 0,-1.06321 160.141,-130.956 174.469,-138.541l13.8458 113.604zm96.9281 -407.313c0,-19.3376 11.0835,-43.9015 30.4628,-44.3326 10.1947,43.7814 13.9292,61.2289 36.0013,94.2075 -4.1062,5.60936 -6.35778,8.31228 -16.6157,8.31228l-2.76865 0 -35.9558 -3.20607c-3.97599,-6.99495 -11.1239,-27.2137 -11.1239,-38.3566l0 -16.6246zm149.545 38.7915c3.45386,-14.8357 7.73073,-30.6322 12.8281,-45.3528 5.18711,-14.9836 0.297093,-40.5424 14.866,-40.5424l2.76865 0c11.244,0 17.8787,32.8281 16.617,47.1037l-3.34135 44.2833c-5.63971,1.49811 -5.79647,2.82175 -13.2756,2.82175 -16.1302,0 -19.8938,-5.48926 -30.4628,-8.31354zm22.1543 -374.063c0,-7.82934 11.55,-16.6246 19.3856,-16.6246 17.0203,0 33.2327,13.1682 33.2327,30.4792l0 8.31228c0,36.2112 -20.0241,65.9394 -41.5399,80.3541 1.44627,-6.21493 2.76865,-6.37043 2.76865,-13.8534l0 -8.31354c0,-21.7093 -13.8471,-35.8736 -13.8471,-60.9584l0 -19.3957zm-171.699 8.31354c0,-14.9419 13.6953,-24.9381 27.6928,-24.9381l13.8471 0c15.5538,0 21.4589,4.53857 27.6941,13.8546l-8.34388 85.8914 0.0353983 2.77497 3.10114 24.8875c-22.3907,-5.84325 -64.0266,-61.5349 -64.0266,-96.9294l0 -5.5411zm130.159 -182.876c0,-11.7042 8.22504,-18.2263 11.0771,-30.4779l8.30848 0c28.1227,0 31.2188,22.1656 60.9255,22.1656l0 11.0835c0,26.2048 31.1619,13.8938 33.2327,38.7927l-11.0771 0c-7.7143,0 -19.3856,11.6776 -19.3856,19.3957l0 2.76992c0,9.00633 2.3995,2.09229 5.53857,13.8546l30.5664 -5.05058c3.24274,4.50949 5.4349,4.37927 5.4349,10.5917l0 13.8546c-17.2883,-1.43995 -7.69281,-8.31228 -19.3856,-8.31228 -2.72314,0 -13.8458,10.641 -13.8458,16.6246l0 8.31228c0,8.50823 2.56385,16.6258 11.0771,16.6258l2.76865 0c8.66626,0 16.617,-7.21493 16.617,5.5411l0 2.77118c0,10.2655 -4.94059,23.4552 -8.30848,30.4792 -11.9785,-8.0253 -13.7927,-14.0304 -29.9432,-22.6865 -11.1998,-6.00254 -23.2112,-9.27688 -34.3351,-15.5221 -17.0089,-9.55248 -49.2656,-26.0304 -49.2656,-50.459l0 -80.3541zm-1052.36 -69.2707l50.3718 80.0418 -50.3718 30.7927 0 -110.835zm708.956 96.9799c28.7624,-39.2782 156.813,-124.688 227.086,-124.688l22.1555 0c49.0696,0 58.3124,17.8736 88.6196,24.9381l0 5.5411c-32.6119,0.726929 -132.929,17.4893 -132.929,44.3338l0 2.77118c0,8.60178 16.3262,24.9368 24.9242,24.9368l8.30848 0c16.1151,0 33.1202,-36.0203 47.0785,-36.0203l8.30848 0c10.0607,0 9.7143,3.28698 19.3856,5.5411 0.371682,16.6675 8.30848,20.4172 8.30848,41.5626l0 27.708 -7.93933 58.2491c-30.9394,16.1227 -39.6701,20.7067 -75.947,35.153 -41.5285,16.5398 -36.751,12.4147 -63.6031,44.4261 -25.7523,30.703 -76.7852,86.6095 -129.446,86.6095 -18.1884,0 -33.9963,-2.58155 -41.5412,-13.8546 14.3831,-21.4906 52.6967,-56.7852 72.6714,-76.9154 9.19218,-9.2655 30.4615,-26.6979 40.8155,-33.9748 6.39445,-4.49305 15.9886,-11.4336 23.1846,-15.5942 12.3565,-7.14287 23.952,1.24273 23.952,-12.0569l0 -5.5411c0,-6.70545 -12.6852,-19.397 -19.3856,-19.397 -1.71808,0 -145.938,133.306 -166.162,146.855 -9.97094,-6.68016 -33.2314,-36.9318 -33.2314,-52.6461 0,-8.55121 96.7688,-60.9002 111.708,-68.3364 19.3186,-9.61569 40.239,-19.2301 58.8016,-29.8332 17.2642,-9.85842 51.038,-15.8319 51.038,-37.6006 0,-7.06069 -5.98737,-16.6258 -13.8471,-16.6258l-2.76865 0c-7.54363,0 -19.3426,12.4438 -24.1897,17.3616 -10.4336,10.5879 -13.7409,8.25918 -26.2402,15.3072 -16.354,9.22125 -38.7472,20.3983 -54.8054,28.2896 -34.6676,17.0367 -69.7321,39.392 -105.237,58.1872 0,-98.6575 19.4412,-70.6992 90.502,-103.409 13.8647,-6.38307 57.9584,-23.7282 70.6727,-26.2681 15.6486,-3.12769 74.2214,-7.35273 74.2214,-19.9482l0 -5.5411c0,-9.55248 -2.04804,-10.7295 -2.76992,-19.3957 -7.85715,-1.83186 -4.73326,-2.77118 -11.0771,-2.77118 -14.3173,0 -132.382,50.2946 -160.622,52.6461zm-479.099 -91.4376c38.6575,-9.01139 74.7877,-19.4375 114.678,-29.3452 34.0734,-8.46398 78.9533,-18.7396 111.386,-29.8673 26.9571,-9.25033 206.921,-57.1619 228.112,-57.1619 12.1328,0 183.54,52.6752 185.546,55.416 -69.1126,0 -200.717,-11.1833 -251.638,8.68649 -26.5525,10.3616 -61.1859,28.526 -88.0393,42.1429 -17.8079,9.03162 -73.9938,36.4463 -89.5728,40.6082l0 8.31228c0,9.00633 2.3995,2.09229 5.53857,13.8546l149.216 -40.0039c11.5803,8.7497 17.6701,23.378 33.5614,23.378l5.53857 0c17.9659,0 54.1252,-32.7573 69.2669,-41.5285 27.933,-16.1821 54.7637,-11.1176 96.894,-11.1176 -5.48926,7.49812 -54.9002,35.7889 -68.1278,45.44 -24.9925,18.2339 -39.9204,30.794 -61.344,52.2289 -22.1113,22.1227 -30.4931,42.0127 -58.8623,54.7093 -25.5019,11.4134 -50.2908,26.5348 -74.7169,38.8484 -36.8724,18.5879 -106.718,64.7675 -135.106,92.0292 -21.2883,20.4425 -99.191,93.5071 -105.865,118.516 18.818,-12.6081 52.0987,-47.1707 71.2681,-64.4641 22.6094,-20.397 49.6764,-43.1695 74.3566,-61.3756 28.7093,-21.1783 50.263,-35.6372 80.9003,-54.8269 14.311,-8.96335 77.1379,-39.5361 94.7195,-41.0001l-6.78256 80.2884c-46.8762,32.306 -231.952,196.924 -245.228,246.669 12.4855,-8.36537 44.6094,-46.0254 58.8446,-60.2694 16.7801,-16.7902 42.9609,-46.3313 60.2378,-58.8762 25.3161,-18.3831 106.964,-99.0469 138.468,-99.7498l-2.76486 2.09229 40.7637 53.9078c-12.4463,19.1656 -36.3806,43.8876 -52.6069,65.1543 -17.0759,22.378 -34.1631,46.0734 -49.6486,69.4717 -14.0392,21.2086 -87.1076,128.668 -90.8282,144.645 8.02024,-5.37422 89.7524,-115.972 105.956,-135.05 11.9166,-14.0278 106.153,-125.409 112.823,-125.409 8.9052,0 24.9242,4.45513 24.9242,13.8534l0 5.54236c0,18.1581 -8.30722,32.1113 -8.30722,47.1037 0,65.861 43.9192,136.46 78.2277,171.105 21.861,22.0772 46.3882,34.5715 76.3971,48.2491 20.6094,9.39319 24.0696,8.31228 48.636,15.067 38.1429,10.488 23.8268,-3.04678 23.8268,31.5791l1.28192 3.35778 62.9647 -24.0784 68.5741 -8.07713 30.5702 1.0885c28.9166,0 44.3098,32.1808 44.3098,60.9584 0,25.445 -13.8635,59.3781 -22.1631,77.5753 -13.1454,28.8231 -13.8382,41.2997 -13.8382,83.1329 -8.27688,-9.5272 -29.6461,-41.5614 -44.3098,-41.5614l-72.0026 0c-67.2352,0 -106.742,70.8332 -135.699,77.5829l0 -24.9368c0,-28.6094 13.3856,-48.5652 13.8471,-69.2719 -6.21113,-1.44754 -6.36663,-2.76992 -13.8471,-2.76992 -52.4388,0 -205.731,137.098 -249.242,166.249 -2.43742,-10.4652 -5.53857,-17.3325 -5.53857,-30.4792l0 -33.2504c0,-14.2693 13.8471,-56.8433 13.8471,-77.5829 -21.9937,0.490519 -276.903,187.356 -315.707,213.354 0,-77.5463 -0.493048,-155.253 0.0303414,-232.78 0.219975,-32.6612 -61.8168,-122.1 -79.2176,-150.72 -17.2415,-28.354 -170.055,-283.191 -170.055,-289.813 0,-58.3478 58.6398,-85.3984 83.0798,-121.915 -27.555,0 -41.684,7.97473 -61.4893,13.2883 -36.4109,9.76866 -18.0835,6.5727 -60.4565,6.20229 -36.1303,-0.316056 -92.9167,-11.1783 -132.835,-11.1783l-2.54868 -39.1606 -3.02023 0.314792 293.061 -161.599 -6.00127 -18.0948 78.2226 -18.239 -2.4665 -26.4501zm-487.407 -942.084l360.017 0c9.93428,0 110.804,176.637 122.795,198.555 38.0392,69.5235 81.3617,133.328 119.082,202.271 75.0431,137.156 164.544,268.064 237.22,405.486l-404.171 105.886 3.12516 27.0443c-11.9836,7.75602 -29.1543,9.79142 -44.2858,14.4577 -30.77,9.488 -26.2352,0.0543617 -19.9191,27.1745l-36.0291 22.1239 -112.052 -186.468 -1.46524 253.011 -138.039 78.3276c0.93679,15.6587 17.6903,25.2175 20.885,36.3313 3.27813,11.4058 -7.16183,32.349 -7.46651,46.0494l124.525 19.9912c4.53224,18.4551 127.587,219.003 147.426,250.997 16.9305,27.3009 146.223,239.496 146.223,252.701l0 307.562 -517.871 0 0 -2061.5zm805.882 0l520.639 0 0 911.604c-1.35272,-0.361568 -44.9508,-22.4678 -51.6815,-25.8736 -17.3515,-8.78383 -35.7384,-13.0228 -54.3579,-20.4261 -19.397,-7.71177 -98.6765,-32.4223 -118.278,-34.0544l0 -19.3957c0,-13.6347 -296.322,-485.371 -296.322,-501.52l0 -310.334zm-30.4628 315.875c0,12.2364 128.216,223.196 145.111,251.04 19.8711,32.7472 141.364,229.214 145.672,247.71 -38.1328,-0.849559 -94.9293,-30.4792 -130.161,-30.4792l-5.5373 0c-18.1201,0 -42.0709,12.2845 -60.9268,13.8546l-486.088 -827.622 -416.723 -0.857144 0 2125.23 584.335 0 0 -52.6461 265.081 -189.493 0.777498 39.8686 -2.81796 0.487991 17.2617 99.6386 3.51707 1.4134 31.8736 -23.9748c17.7902,13.0493 66.7093,124.706 80.325,124.706l409.865 0 0 -227.209 29.9482 17.4134c0.514539,-45.6676 3.39318,-91.2176 11.7674,-128.07 6.9545,-30.6018 33.0569,-69.5538 33.0569,-105.468 0,-45.0987 -36.0026,-68.9508 -36.0026,-85.8965 0,-12.1037 5.53983,-10.062 5.53983,-22.1656l0 -22.1682c0,-42.55 -41.5412,-93.7814 -41.5412,-124.687l0 -16.6258c0,-39.0405 43.7788,-83.3857 56.3086,-115.453 12.713,-32.5411 -2.68268,-32.3313 23.3578,-62.526 12.8218,-14.8648 6.30974,-57.5412 25.5689,-57.5412 21.3616,0 63.1834,31.2011 75.4691,43.636 11.2503,11.3869 51.6726,62.2137 54.6916,64.4261 -4.95829,-21.2895 -42.5601,-71.7498 -57.4679,-86.5842 -14.8572,-14.7864 -21.9431,-20.4501 -38.6802,-33.3414 -9.78257,-7.53478 -42.3212,-18.8711 -42.3212,-26.928l0 -13.8546c0,-4.53477 1.65866,-8.31228 5.53983,-8.31228 55.0734,0 151.503,66.7738 188.316,91.4376 -5.95955,-22.3313 -75.2669,-62.0342 -96.1481,-78.3642 -35.9925,-28.1467 -99.5855,-11.55 -111.554,-62.9483l19.3856 0c40.4982,0 93.0823,17.1252 120.926,31.4059 18.3237,9.39698 89.5918,52.2833 97.8535,54.4893 -14.0948,-21.0607 -83.1177,-63.9875 -111.923,-73.6638 -31.0633,-10.4349 -108.106,-39.9406 -142.859,-39.9406 -12.9886,-19.4071 -44.818,-58.0368 -69.2327,-63.7283l0 -972.563 -581.566 0 0 346.355z"/>
 </g>
</svg>
