<?xml version="1.0" encoding="utf-8"?>
<!-- Generator: Adobe Illustrator 21.0.0, SVG Export Plug-In . SVG Version: 6.00 Build 0)  -->
<svg version="1.1" id="Layer_1" xmlns="http://www.w3.org/2000/svg" xmlns:xlink="http://www.w3.org/1999/xlink" x="0px" y="0px"
	 viewBox="0 0 648 144" style="enable-background:new 0 0 648 144;" xml:space="preserve">
<style type="text/css">
	.st0{fill:#4E2A84;}
</style>
<g>
	<polygon class="st0" points="39.5,38.7 39.5,41.3 46.1,48.7 46.1,99.1 37.2,101.6 37.2,104.5 61.1,104.5 61.1,101.6 53.6,99.6 
		51.7,97.2 51.7,55.1 93.6,105 97.3,105 97.3,45 106.2,42.4 106.2,39.2 81.9,39.2 81.9,42.8 89.6,44.7 91.5,47 91.5,86.9 91.5,86.9 
		91,86.9 50.3,38.7 	"/>
	<path class="st0" d="M129.3,105.6c-11.8,0-23.2-7.6-23.2-23.8c0-16.1,12-24.2,23.2-24.2c11.6,0,23.4,7.3,23.4,23.4
		C152.7,96.5,140.2,105.6,129.3,105.6z M143.5,82.4c0-11-6-20.4-15.5-20.4c-8.5,0-12.7,7.4-12.7,18.4c0,11,5.3,20.7,15.3,20.7
		C139.1,101.2,143.5,93.5,143.5,82.4z"/>
	<path class="st0" d="M271.8,77.7c0-11-6.2-13.2-13.4-13.2c-6.1,0-10.1,4.5-10.1,4.5l0,7.3v21.1l1.9,2.4l6.4,2.2l0,2.5h-23V102
		l6.5-2.5l0-47.6c0-8.6-2.2-11-6.9-11v-2.3l14.6-4.9h1c0,0-0.5,10.2-0.5,17.8v13.7c0,0,9.5-7.6,16-7.6c8.1,0,15.6,3.4,15.6,15.3
		l0,24.5l1.9,2.4l6.4,2.2l0,2.5h-23V102l6.3-2.4L271.8,77.7z"/>
	<path class="st0" d="M364.9,79.2c0,13.7,7.8,19.4,16.7,19.4c5.5,0,12.1-2.3,12.1-2.3l1,1.9c-2.4,2.4-9,7.4-17.3,7.4
		c-11.2,0-21.3-8.4-21.3-23.8c0-14,9.7-24.2,21.7-24.2c9.4,0,16.7,5.6,16.7,16.3c0,2.8-0.5,5.2-0.5,5.2H364.9z M379.4,75.4
		c4.7-0.2,6.4-1.1,6.4-5.9c0-4.1-3-7.3-9.3-7.3c-6.6,0-11.6,5.8-11.6,13.7L379.4,75.4z"/>
	<path class="st0" d="M405.4,103.8c-0.7-0.3-2.5-1.3-2.6-3.4l-0.6-9.4h4.3c1.2,6.4,5.5,10.6,11.1,10.6c5.7,0,8-3,8-6.9
		c0-3.8-3.1-5.7-6.8-7.7l-5-2.6c-7.2-3.7-10.8-6.6-10.8-13.7c0-8.9,6.4-13.1,16.4-13.1c7,0,12.4,2.7,12.4,2.7l-1.3,11.5h-4
		c0-7.2-3-9.9-9-9.9c-4,0-7.8,1.6-7.8,5.5c0,3.2,1.3,4.5,9.1,8.6l4.4,2.3c8.1,4.1,10.4,7.6,10.4,14.3c0,8.1-8.1,12.9-16,12.9
		C412.7,105.6,408.2,105,405.4,103.8z"/>
	<path class="st0" d="M483,79.2c0,13.7,7.8,19.4,16.7,19.4c5.5,0,12.1-2.3,12.1-2.3l1,1.9c-2.4,2.4-9,7.4-17.3,7.4
		c-11.2,0-21.3-8.4-21.3-23.8c0-14,9.7-24.2,21.7-24.2c9.4,0,16.7,5.6,16.7,16.3c0,2.8-0.5,5.2-0.5,5.2H483z M497.5,75.4
		c4.7-0.2,6.4-1.1,6.4-5.9c0-4.1-3-7.3-9.3-7.3C488,62.2,483,68,483,75.9L497.5,75.4z"/>
	<path class="st0" d="M604.4,99.8l-1.9-2.4l0.1-25c0-11.5-7.5-14.8-15.2-14.8c-6.5,0-15.7,7.6-15.7,7.6c0-4.1,0.2-7.9,0.2-7.9h-0.8
		l-14.4,5.2V65c5.5,0,7,4.9,7,13.8v20.7l-6.5,2.5v2.6h22.7l0.2-2.5l-6.4-2.2l-1.9-2.4l0-28.3c0,0,3.5-4.6,9.7-4.6
		c6.4,0,13,2.3,13,13.2l-0.3,21.9l-6.3,2.4v2.6h22.7l0.2-2.5L604.4,99.8z"/>
	<path class="st0" d="M330.6,105L320,75.7L307.9,105h-4.1l-11.9-36.2c-1.7-4.5-2.6-7.2-5.8-7.2v-2.8h19.5v2.8l-5.9,1.9l8.9,30
		l7.8-18.7l1.8-4.8l-2.7-7.6l-3.4-0.8v-2.8h18.8v3l-5.9,1.8l10,30l10.4-29.8l-6.7-2.4v-2.6h17.7v2.8c-4,0.5-6,1.6-9.2,9.7L335.2,105
		H330.6z"/>
	<path class="st0" d="M228.1,97.7c0,0-2.8,1.8-6.9,1.8c-4.4,0-8.5-2.5-8.4-8.6l0.4-25.8h14.6v0h0.1l0.2-1.6h0l1-8.1l-1.9-0.3
		l-1.4,3.1l-0.8,0.7l-11.6,0.5v0l-0.1,0V47.5l-5.7,1l-2.5,11.1l-8.1,0.8v3.8c4.4,0,8.1,0.4,8.1,4.6c0,4.2-0.4,17.6-0.4,22.9
		c0,10.1,3.8,13.8,10.3,13.8c5.5,0,10.1-2.3,14.2-5.6L228.1,97.7z"/>
	<path class="st0" d="M469.7,97.7c0,0-2.8,1.8-6.9,1.8c-4.4,0-8.5-2.5-8.4-8.6l0.4-25.8h14.6v0h0l0.2-1.6h0l1-8.1l-1.9-0.3l-1.4,3.1
		l-0.8,0.7l-11.6,0.5v0l0,0V47.5l-5.7,1l-2.5,11.1l-8.1,0.8v3.8c4.4,0,8.1,0.4,8.1,4.6c0,4.2-0.4,17.6-0.4,22.9
		c0,10.1,3.8,13.8,10.3,13.8c5.5,0,10.1-2.3,14.2-5.6L469.7,97.7z"/>
	<path class="st0" d="M191.4,58.3L191.4,58.3L191.4,58.3c-0.1,0-1.7-0.6-4.9-0.6c-6.9,0-14.1,10.9-14.1,10.9c0-6,0.2-11.1,0.2-11.1
		h-0.8l-14.1,5.2V65c5.3,0,7,4.8,7,13v21.5l-6.5,2.5v2.6h22.7l0-2.5l-6.4-2.2l-1.9-2.4V76.3c0-6.5,5.1-10.2,10.7-10.2
		c1.1,0,2.3,0.3,3.3,0.6l1.5,2.3l1.9,0.2L191.4,58.3L191.4,58.3L191.4,58.3z"/>
	<path class="st0" d="M552.2,58.3L552.2,58.3L552.2,58.3c-0.1,0-1.7-0.6-4.9-0.6c-6.9,0-14.1,10.9-14.1,10.9c0-6,0.2-11.1,0.2-11.1
		h-0.8l-14.1,5.2V65c5.3,0,7,4.8,7,13v21.5L519,102v2.6h22.7l0-2.5l-6.4-2.2l-1.9-2.4V76.3c0-6.5,5.1-10.2,10.7-10.2
		c1.1,0,2.3,0.3,3.3,0.6l1.5,2.3l1.9,0.2L552.2,58.3L552.2,58.3L552.2,58.3z"/>
</g>
</svg>
